<?xml version="1.0" encoding="utf-8" standalone="no"?>
<!DOCTYPE svg PUBLIC "-//W3C//DTD SVG 1.1//EN" "http://www.w3.org/Graphics/SVG/1.1/DTD/svg11.dtd">
<svg xmlns="http://www.w3.org/2000/svg" xmlns:xl="http://www.w3.org/1999/xlink" version="1.1" viewBox="2 5 124 118" width="124pt" height="118pt" xmlns:dc="http://purl.org/dc/elements/1.1/"><metadata> Produced by OmniGraffle 6.0.3 <dc:date>2016-07-14 06:25Z</dc:date></metadata><defs/><g stroke="none" stroke-opacity="1" stroke-dasharray="none" fill="none" fill-opacity="1"><title>Canvas 1</title><g><title>Layer 1</title><path d="M 70.49148 74.6477 C 65.70048 79.3487 58.00448 79.2737 53.29948 74.4847 L 36.589481 57.4317 C 33.948481 54.7377 33.986481 50.4127 36.680481 47.7627 C 39.370481 45.1207 43.699481 45.1587 46.34548 47.8507 L 59.74248 61.5387 C 60.99248 62.8037 63.03048 62.8227 64.29248 61.5767 L 105.12548 20.7317 C 107.81848 18.0887 112.15148 18.1347 114.79248 20.8327 C 117.43548 23.5247 117.39348 27.8517 114.69548 30.4987 Z" fill="#0e1830"/><path d="M 106.263555 44.778 L 95.309555 55.931 C 95.678555 57.944 95.877555 60.004 95.877555 62.098 C 95.877555 71.064 92.384555 79.503 86.043555 85.838 C 79.702555 92.183 71.268555 95.674 62.300555 95.674 C 53.334555 95.674 44.900555 92.183 38.561555 85.838 C 25.469555 72.748 25.469555 51.444 38.561555 38.358 C 44.900555 32.016 53.334555 28.523 62.300555 28.523 C 70.609555 28.523 78.452555 31.526 83.582555 36.414 L 93.303555 26.785 C 85.293555 19.029 73.800555 14.852 62.300555 14.852 C 50.210555 14.852 38.118555 19.463 28.893555 28.693 C 12.0805545 45.506 10.5885545 71.843 24.421555 90.346 C 24.300555 90.453 24.177555 90.557 24.061555 90.672 L 13.2545545 101.481 C 10.5855545 104.148 10.5855545 108.476 13.2545545 111.147 C 14.5895545 112.48 16.340555 113.148 18.086555 113.148 C 19.838555 113.148 21.587555 112.48 22.925555 111.147 L 33.727555 100.342 C 33.843555 100.23 33.948555 100.1 34.055555 99.977 C 42.407555 106.217 52.354555 109.35 62.300555 109.35 C 74.396555 109.35 86.485555 104.733 95.710555 95.509 C 109.425555 81.793 112.938555 61.743 106.263555 44.778 Z" fill="#2d83c9"/><path d="M 57.48548 92.9326 C 57.37548 92.9326 57.26048 92.9216 57.14648 92.9036 C 34.650481 89.0806 31.959481 65.8666 31.920481 65.6106 C 31.764481 64.5146 32.527481 63.4926 33.628481 63.3346 C 34.738481 63.1796 35.746481 63.9486 35.899481 65.0456 C 36.038481 66.0066 38.256481 85.6216 57.81848 88.9396 C 58.91148 89.1246 59.65148 90.1716 59.46348 91.2606 C 59.30048 92.2386 58.44648 92.9326 57.48548 92.9326 Z" fill="#2d83c9"/></g></g></svg>
