<?xml version="1.0" encoding="utf-8" standalone="no"?>
<!DOCTYPE svg PUBLIC "-//W3C//DTD SVG 1.1//EN" "http://www.w3.org/Graphics/SVG/1.1/DTD/svg11.dtd">
<svg xmlns="http://www.w3.org/2000/svg" xmlns:xl="http://www.w3.org/1999/xlink" version="1.1" viewBox="2 5 124 118" width="124pt" height="118pt" xmlns:dc="http://purl.org/dc/elements/1.1/"><metadata> Produced by OmniGraffle 6.0.3 <dc:date>2016-07-14 06:33Z</dc:date></metadata><defs/><g stroke="none" stroke-opacity="1" stroke-dasharray="none" fill="none" fill-opacity="1"><title>Canvas 1</title><g><title>Layer 1</title><path d="M 70.49152 74.6477 C 65.700518 79.3487 58.004518 79.2737 53.299518 74.4847 L 36.589518 57.4317 C 33.948518 54.7377 33.986518 50.4127 36.680518 47.7627 C 39.370518 45.1207 43.699518 45.1587 46.345518 47.8507 L 59.742518 61.5387 C 60.992518 62.8037 63.030518 62.8227 64.292518 61.5767 L 105.12552 20.7317 C 107.81852 18.0887 112.15152 18.1347 114.79252 20.8327 C 117.43552 23.5247 117.39352 27.8517 114.69552 30.4987 Z" fill="#fefefe"/><path d="M 106.26352 44.778 L 95.30952 55.931 C 95.67852 57.944 95.87752 60.004 95.87752 62.098 C 95.87752 71.064 92.38452 79.503 86.04352 85.838 C 79.70252 92.183 71.26852 95.674 62.300518 95.674 C 53.334518 95.674 44.900518 92.183 38.561518 85.838 C 25.469518 72.748 25.469518 51.444 38.561518 38.358 C 44.900518 32.016 53.334518 28.523 62.300518 28.523 C 70.60952 28.523 78.45252 31.526 83.58252 36.414 L 93.30352 26.785 C 85.29352 19.029 73.80052 14.852 62.300518 14.852 C 50.210518 14.852 38.118518 19.463 28.893518 28.693 C 12.080518 45.506 10.588518 71.843 24.421518 90.346 C 24.300518 90.453 24.177518 90.557 24.061518 90.672 L 13.254518 101.481 C 10.585518 104.148 10.585518 108.476 13.254518 111.147 C 14.589518 112.48 16.340518 113.148 18.086518 113.148 C 19.838518 113.148 21.587518 112.48 22.925518 111.147 L 33.727518 100.342 C 33.843518 100.23 33.948518 100.1 34.055518 99.977 C 42.407518 106.217 52.354518 109.35 62.300518 109.35 C 74.39652 109.35 86.48552 104.733 95.71052 95.509 C 109.42552 81.793 112.93852 61.743 106.26352 44.778 Z" fill="#2d83c9"/></g></g></svg>
