<?xml version="1.0" encoding="utf-8" standalone="no"?>
<!DOCTYPE svg PUBLIC "-//W3C//DTD SVG 1.1//EN" "http://www.w3.org/Graphics/SVG/1.1/DTD/svg11.dtd">
<svg xmlns="http://www.w3.org/2000/svg" xmlns:xl="http://www.w3.org/1999/xlink" version="1.1" viewBox="-9 5 274 118" width="274pt" height="118pt" xmlns:dc="http://purl.org/dc/elements/1.1/"><metadata> Produced by OmniGraffle 6.0.3 <dc:date>2016-07-14 07:01Z</dc:date></metadata><defs/><g stroke="none" stroke-opacity="1" stroke-dasharray="none" fill="none" fill-opacity="1"><title>Canvas 1</title><g><title>Layer 1</title><path d="M 59.23875 74.6477 C 54.44775 79.3487 46.75175 79.2737 42.04675 74.4847 L 25.33675 57.4317 C 22.69575 54.7377 22.73375 50.4127 25.42775 47.7627 C 28.11775 45.1207 32.44675 45.1587 35.09275 47.8507 L 48.48975 61.5387 C 49.73975 62.8037 51.77775 62.8227 53.03975 61.5767 L 93.87275 20.7317 C 96.56575 18.0887 100.89875 18.1347 103.53975 20.8327 C 106.18275 23.5247 106.14075 27.8517 103.44275 30.4987 Z" fill="#0e1830"/><path d="M 95.01075 44.778 L 84.05675 55.931 C 84.42575 57.944 84.62475 60.004 84.62475 62.098 C 84.62475 71.064 81.13175 79.503 74.79075 85.838 C 68.44975 92.183 60.01575 95.674 51.04775 95.674 C 42.08175 95.674 33.64775 92.183 27.30875 85.838 C 14.21675 72.748 14.21675 51.444 27.30875 38.358 C 33.64775 32.016 42.08175 28.523 51.04775 28.523 C 59.35675 28.523 67.19975 31.526 72.32975 36.414 L 82.05075 26.785 C 74.04075 19.029 62.54775 14.852 51.04775 14.852 C 38.95775 14.852 26.86575 19.463 17.64075 28.693 C .82775 45.506 -.66425 71.843 13.16875 90.346 C 13.04775 90.453 12.92475 90.557 12.80875 90.672 L 2.00175 101.481 C -.66725 104.148 -.66725 108.476 2.00175 111.147 C 3.33675 112.48 5.08775 113.148 6.83375 113.148 C 8.58575 113.148 10.33475 112.48 11.67275 111.147 L 22.47475 100.342 C 22.59075 100.23 22.69575 100.1 22.80275 99.977 C 31.15475 106.217 41.10175 109.35 51.04775 109.35 C 63.14375 109.35 75.23275 104.733 84.45775 95.509 C 98.17275 81.793 101.68575 61.743 95.01075 44.778 Z" fill="#2d83c9"/><path d="M 46.23275 92.9326 C 46.12275 92.9326 46.00775 92.9216 45.89375 92.9036 C 23.39775 89.0806 20.70675 65.8666 20.66775 65.6106 C 20.51175 64.5146 21.27475 63.4926 22.37575 63.3346 C 23.48575 63.1796 24.49375 63.9486 24.64675 65.0456 C 24.78575 66.0066 27.00375 85.6216 46.56575 88.9396 C 47.65875 89.1246 48.39875 90.1716 48.21075 91.2606 C 48.04775 92.2386 47.19375 92.9326 46.23275 92.9326 Z" fill="#2d83c9"/><path d="M 248.60616 36.5746 L 248.61249 36.662984 C 248.61249 36.621247 248.60616 36.5746 248.60616 36.5746 Z" fill="#2d83c9"/><path d="M 255.98987 86.98395 L 256 87.06251 C 255.99367 87.030596 255.98987 86.98395 255.98987 86.98395 Z" fill="#2d83c9"/><path d="M 243.59998 69.14524 C 245.35292 74.259166 249.2233 78.523633 255.20099 81.93619 L 255.20099 74.768594 C 250.80663 68.625993 248.60565 60.443223 248.60565 50.214146 L 255.20099 50.214146 L 255.20099 45.548274 C 255.19593 45.342047 255.1086 44.5331 254.42388 43.865319 C 253.73663 43.204903 252.8418 43.06619 252.61905 43.04655 L 248.60565 43.04655 L 248.60565 36.57497 C 248.59047 36.324551 248.48415 35.55243 247.83234 34.917792 C 247.0413 34.151809 245.97056 34.09657 245.97056 34.09657 L 237.79821 34.09657 L 237.79821 43.04655 L 231.72939 43.04655 L 231.72939 50.214146 L 237.79821 50.214146 C 237.79821 60.615078 235.59597 68.800303 231.20161 74.768594 L 231.20161 81.93619 C 237.00338 79.031834 241.13701 74.768594 243.59998 69.14524 Z" fill="#2d83c9"/><path d="M 208.25348 77.58383 C 208.25348 79.46319 207.46118 80.313875 205.88037 80.14079 L 204.82608 80.14079 L 204.82608 44.58392 L 208.25348 44.58392 Z M 216.42709 78.60514 L 216.42709 40.49499 C 216.43848 39.519097 215.64745 38.750658 215.64745 38.750658 C 214.9083 38.038686 213.93755 37.942938 213.80718 37.93189 L 196.38542 37.93189 L 196.38542 86.53872 L 207.99149 86.53872 C 213.96792 86.87875 216.78148 84.237087 216.42709 78.60514" fill="#2d83c9"/><path d="M 230.41298 48.16244 C 230.12567 44.592758 229.31945 41.02185 228.01076 37.448485 C 227.99178 37.398156 227.97279 37.349055 227.95507 37.297498 L 227.94368 37.277857 C 227.81838 36.934147 227.50323 36.217264 226.98558 35.715201 C 226.26795 35.000774 225.38326 34.87802 225.19594 34.859607 L 218.54238 34.859607 C 220.12699 39.637186 221.08889 44.071054 221.442 48.16244 Z" fill="#2d83c9"/><path d="M 253.35149 84.49794 L 237.79783 84.48689 C 232.34285 84.658747 229.70775 82.269957 229.88115 77.33157 L 229.88115 55.270254 C 229.87356 55.050524 229.7723 54.25017 229.09897 53.59712 C 228.3092 52.822542 227.24099 52.770986 227.24099 52.770986 L 217.74983 52.770986 L 217.74983 59.673433 L 220.65451 59.673433 L 220.65451 78.35043 C 220.82791 82.10301 219.4167 84.74713 216.42722 86.280325 L 216.42722 92.16637 C 220.47479 91.81898 223.72879 90.120064 226.1905 87.047536 C 228.47754 89.94207 231.73027 91.396704 235.94997 91.396704 L 255.99038 91.396704 L 255.99038 86.983704 C 255.98152 86.76152 255.879 85.970985 255.21074 85.31548 C 254.4235 84.55318 253.35149 84.49794 253.35149 84.49794 Z" fill="#2d83c9"/><path d="M 172.81066 44.583429 C 172.77649 44.57729 172.74991 44.57238 172.74991 44.57238 Z" fill="#0e1830"/><path d="M 178.08162 36.140543 C 178.03985 36.135633 178.01454 36.135633 178.01454 36.135633 Z" fill="#0e1830"/><path d="M 179.87708 87.792897 C 179.37968 87.309247 178.77849 87.110386 178.39246 87.02814 C 178.2254 86.99377 178.09883 86.97904 178.04567 86.96922 C 172.94255 86.22042 169.33163 84.967104 167.21418 83.215407 L 153.49573 83.215407 C 157.89262 89.17879 166.95346 92.42317 180.66432 92.9326 L 180.66179 89.536 C 180.66432 88.557654 179.87708 87.792897 179.87708 87.792897 Z" fill="#0e1830"/><path d="M 121.582324 87.30397 L 121.582324 90.19482 C 121.6089 90.55449 121.73294 91.475144 122.35944 92.084003 C 123.03783 92.741963 124.14275 92.784927 124.443974 92.77879 C 136.56137 91.94529 144.66664 88.756147 148.75091 83.21504 L 135.03372 83.21504 C 132.56949 85.257663 128.08527 86.622685 121.582324 87.30397 Z" fill="#0e1830"/><path d="M 164.31697 53.022877 L 138.202674 53.022877 L 138.202674 50.467142 L 164.31697 50.467142 Z M 164.31697 60.6999 L 138.202674 60.6999 L 138.202674 57.886383 L 164.31697 57.886383 Z M 164.31697 68.370787 L 138.202674 68.370787 L 138.202674 65.56218 L 164.31697 65.56218 Z M 164.31697 76.045356 L 138.202674 76.045356 L 138.202674 73.23552 L 164.31697 73.23552 Z M 179.60484 76.051494 L 175.3864 76.045356 L 175.3864 47.140513 C 175.39779 46.16953 174.60802 45.401092 174.60802 45.401092 C 173.92963 44.745586 173.06519 44.606874 172.81079 44.58355 L 156.92553 44.58355 L 156.92553 42.277007 L 180.66419 42.277007 L 180.66166 38.701188 C 180.66419 37.724068 179.87695 36.953174 179.87695 36.953174 C 179.19856 36.302578 178.33412 36.163866 178.08099 36.140543 L 156.92553 36.140543 C 156.92553 36.09758 156.91794 35.157285 156.14462 34.40726 C 155.35106 33.64373 154.28031 33.588491 154.28031 33.588491 L 145.32199 33.586036 L 145.32199 36.140543 L 121.849124 36.140543 L 121.849124 42.277007 L 145.32199 42.277007 L 145.32199 44.58355 L 127.123116 44.58355 L 127.123116 76.045356 L 120 76.045356 L 120 82.184275 L 182.25006 82.184275 L 182.25006 78.559355 C 182.23614 78.350673 182.15007 77.536815 181.47168 76.872717 C 180.67685 76.10919 179.60484 76.051494 179.60484 76.051494" fill="#0e1830"/><path d="M 124.44423 92.778667 C 124.49232 92.778667 124.520166 92.77744 124.520166 92.77744 Z" fill="#0e1830"/><path d="M 121.582324 90.195067 L 121.58106 90.03426 C 121.58106 90.09809 121.582324 90.195067 121.582324 90.195067 Z" fill="#0e1830"/></g></g></svg>
