<?xml version="1.0" encoding="utf-8" standalone="no"?>
<!DOCTYPE svg PUBLIC "-//W3C//DTD SVG 1.1//EN" "http://www.w3.org/Graphics/SVG/1.1/DTD/svg11.dtd">
<svg xmlns="http://www.w3.org/2000/svg" xmlns:xl="http://www.w3.org/1999/xlink" version="1.1" viewBox="-9 5 274 118" width="274pt" height="118pt" xmlns:dc="http://purl.org/dc/elements/1.1/"><metadata> Produced by OmniGraffle 6.0.3 <dc:date>2016-07-14 07:12Z</dc:date></metadata><defs/><g stroke="none" stroke-opacity="1" stroke-dasharray="none" fill="none" fill-opacity="1"><title>Canvas 1</title><g><title>Layer 1</title><path d="M 59.23875 74.6477 C 54.44775 79.3487 46.75175 79.2737 42.04675 74.4847 L 25.33675 57.4317 C 22.69575 54.7377 22.73375 50.4127 25.42775 47.7627 C 28.11775 45.1207 32.44675 45.1587 35.09275 47.8507 L 48.48975 61.5387 C 49.73975 62.8037 51.77775 62.8227 53.03975 61.5767 L 93.87275 20.7317 C 96.56575 18.0887 100.89875 18.1347 103.53975 20.8327 C 106.18275 23.5247 106.14075 27.8517 103.44275 30.4987 Z" fill="#fefefe"/><path d="M 95.01075 44.778 L 84.05675 55.931 C 84.42575 57.944 84.62475 60.004 84.62475 62.098 C 84.62475 71.064 81.13175 79.503 74.79075 85.838 C 68.44975 92.183 60.01575 95.674 51.04775 95.674 C 42.08175 95.674 33.64775 92.183 27.30875 85.838 C 14.21675 72.748 14.21675 51.444 27.30875 38.358 C 33.64775 32.016 42.08175 28.523 51.04775 28.523 C 59.35675 28.523 67.19975 31.526 72.32975 36.414 L 82.05075 26.785 C 74.04075 19.029 62.54775 14.852 51.04775 14.852 C 38.95775 14.852 26.86575 19.463 17.64075 28.693 C .82775 45.506 -.66425 71.843 13.16875 90.346 C 13.04775 90.453 12.92475 90.557 12.80875 90.672 L 2.00175 101.481 C -.66725 104.148 -.66725 108.476 2.00175 111.147 C 3.33675 112.48 5.08775 113.148 6.83375 113.148 C 8.58575 113.148 10.33475 112.48 11.67275 111.147 L 22.47475 100.342 C 22.59075 100.23 22.69575 100.1 22.80275 99.977 C 31.15475 106.217 41.10175 109.35 51.04775 109.35 C 63.14375 109.35 75.23275 104.733 84.45775 95.509 C 98.17275 81.793 101.68575 61.743 95.01075 44.778 Z" fill="#2d83c9"/><path d="M 46.23275 92.9326 C 46.12275 92.9326 46.00775 92.9216 45.89375 92.9036 C 23.39775 89.0806 20.70675 65.8666 20.66775 65.6106 C 20.51175 64.5146 21.27475 63.4926 22.37575 63.3346 C 23.48575 63.1786 24.49375 63.9486 24.64675 65.0456 C 24.78575 66.0066 27.00375 85.6216 46.56575 88.9396 C 47.65875 89.1246 48.39875 90.1716 48.21075 91.2606 C 48.04775 92.2386 47.19375 92.9326 46.23275 92.9326 Z" fill="#2d83c9"/><path d="M 249.04109 36.574717 L 249.04705 36.6631 C 249.04705 36.621364 249.04109 36.574717 249.04109 36.574717 Z" fill="#2d83c9"/><path d="M 255.99047 86.98384 L 256 87.0624 C 255.99404 87.030486 255.99047 86.98384 255.99047 86.98384 Z" fill="#2d83c9"/><path d="M 244.3294 69.145168 C 245.97922 74.25908 249.62192 78.52354 255.24799 81.93609 L 255.24799 74.76851 C 251.11212 68.62592 249.04062 60.443167 249.04062 50.214112 L 255.24799 50.214112 L 255.24799 45.54825 C 255.24323 45.342023 255.16103 44.533077 254.51659 43.865297 C 253.86977 43.204883 253.02758 43.066172 252.81793 43.04653 L 249.04062 43.04653 L 249.04062 36.574963 C 249.02632 36.324546 248.92626 35.552426 248.31279 34.91779 C 247.56828 34.151807 246.56052 34.096568 246.56052 34.096568 L 238.8689 34.096568 L 238.8689 43.04653 L 233.15707 43.04653 L 233.15707 50.214112 L 238.8689 50.214112 C 238.8689 60.615022 236.7962 68.80023 232.66034 74.76851 L 232.66034 81.93609 C 238.12083 79.03174 242.0113 74.76851 244.3294 69.145168 Z" fill="#2d83c9"/><path d="M 211.0621 77.58386 C 211.0621 79.46322 210.3164 80.3139 208.82859 80.14082 L 207.83631 80.14082 L 207.83631 44.58402 L 211.0621 44.58402 Z M 218.75491 78.60517 L 218.75491 40.495098 C 218.76563 39.519207 218.02113 38.75077 218.02113 38.75077 C 217.32546 38.0388 216.41181 37.943051 216.28911 37.932004 L 199.89216 37.932004 L 199.89216 86.538735 L 210.81552 86.538735 C 216.4404 86.87876 219.08845 84.237105 218.75491 78.60517" fill="#2d83c9"/><path d="M 231.9181 48.162532 C 231.6477 44.592858 230.8889 41.021956 229.65719 37.4486 C 229.63932 37.39827 229.62145 37.34917 229.60477 37.297613 L 229.59405 37.277973 C 229.47612 36.934263 229.17951 36.217382 228.69231 35.71532 C 228.0169 35.000894 227.18424 34.87814 227.00794 34.859727 L 220.74577 34.859727 C 222.23716 39.637296 223.14248 44.071155 223.47483 48.162532 Z" fill="#2d83c9"/><path d="M 253.50728 84.497834 L 238.86855 84.486786 C 233.73445 84.65864 231.25436 82.269857 231.41755 77.33148 L 231.41755 55.27021 C 231.4104 55.05048 231.31511 54.250127 230.68139 53.597078 C 229.93807 52.822503 228.9327 52.770946 228.9327 52.770946 L 219.99984 52.770946 L 219.99984 59.67338 L 222.73366 59.67338 L 222.73366 78.350335 C 222.89685 82.10291 221.56866 84.747024 218.75503 86.280216 L 218.75503 92.16625 C 222.56451 91.818857 225.6271 90.11995 227.944 87.047426 C 230.0965 89.941955 233.1579 91.396585 237.12939 91.396585 L 255.99095 91.396585 L 255.99095 86.983594 C 255.98261 86.76141 255.88612 85.970877 255.25716 85.315373 C 254.51623 84.553073 253.50728 84.497834 253.50728 84.497834 Z" fill="#2d83c9"/><path d="M 177.70415 44.583529 C 177.67199 44.57739 177.64698 44.57248 177.64698 44.57248 Z" fill="#fefefe"/><path d="M 182.66505 36.14066 C 182.62574 36.13575 182.60192 36.13575 182.60192 36.13575 Z" fill="#fefefe"/><path d="M 184.3549 87.79291 C 183.88675 87.30926 183.32093 87.1104 182.95761 87.028153 C 182.80037 86.99378 182.68125 86.97905 182.63122 86.96923 C 177.82828 86.220435 174.42977 84.96712 172.43688 83.215427 L 159.52539 83.215427 C 163.66364 89.178796 172.19149 92.42317 185.09583 92.9326 L 185.09345 89.53601 C 185.09583 88.557663 184.3549 87.79291 184.3549 87.79291 Z" fill="#fefefe"/><path d="M 129.489246 87.30398 L 129.489246 90.194827 C 129.51426 90.554495 129.631 91.475147 130.22065 92.084005 C 130.85913 92.741964 131.89906 92.78493 132.18256 92.77879 C 143.58717 91.945293 151.21566 88.756155 155.05968 83.21506 L 142.14939 83.21506 C 139.83011 85.25768 135.60966 86.6227 129.489246 87.30398 Z" fill="#fefefe"/><path d="M 169.71009 53.024064 L 145.13193 53.024064 L 145.13193 50.468335 L 169.71009 50.468335 Z M 169.71009 60.699845 L 145.13193 60.699845 L 145.13193 57.88756 L 169.71009 57.88756 Z M 169.71009 68.370715 L 145.13193 68.370715 L 145.13193 65.562114 L 169.71009 65.562114 Z M 169.71009 76.04527 L 145.13193 76.04527 L 145.13193 73.23544 L 169.71009 73.23544 Z M 184.09867 76.051406 L 180.12838 76.04527 L 180.12838 47.140485 C 180.1391 46.169505 179.39579 45.401067 179.39579 45.401067 C 178.7573 44.745563 177.94371 44.606852 177.70427 44.583529 L 162.75344 44.583529 L 162.75344 42.27699 L 185.09571 42.27699 L 185.09333 38.701177 C 185.09571 37.72406 184.35478 36.954394 184.35478 36.954394 C 183.71629 36.302573 182.9027 36.163861 182.66446 36.140538 L 162.75344 36.140538 C 162.75344 36.097574 162.7463 35.157282 162.01847 34.407258 C 161.27158 33.64373 160.26382 33.588491 160.26382 33.588491 L 151.83246 33.586036 L 151.83246 36.140538 L 129.74035 36.140538 L 129.74035 42.27699 L 151.83246 42.27699 L 151.83246 44.583529 L 134.70411 44.583529 L 134.70411 76.04527 L 128 76.04527 L 128 82.184175 L 186.58829 82.184175 L 186.58829 78.55926 C 186.57519 78.35058 186.49418 77.536724 185.8557 76.872628 C 185.10762 76.1091 184.09867 76.051406 184.09867 76.051406" fill="#fefefe"/><path d="M 132.1828 92.778667 C 132.22807 92.778667 132.254274 92.77744 132.254274 92.77744 Z" fill="#0e1830"/><path d="M 129.489246 90.19507 L 129.488055 90.034265 C 129.488055 90.09687 129.489246 90.19507 129.489246 90.19507 Z" fill="#0e1830"/></g></g></svg>
