<?xml version="1.0" encoding="UTF-8"?>
<svg version="1.1" xmlns:dc="http://purl.org/dc/elements/1.1/" xmlns:cc="http://creativecommons.org/ns#" xmlns:rdf="http://www.w3.org/1999/02/22-rdf-syntax-ns#" xmlns:svg="http://www.w3.org/2000/svg" xmlns:xlink="http://www.w3.org/1999/xlink" xmlns="http://www.w3.org/2000/svg" width="41.6518128033" height="44.3349893811" viewBox="0, 0, 41.6518128033, 44.3349893811" preserveAspectRatio="none" id="svg2">
<defs id="defs_6FA866D5"/>
<metadata id="metadata7">
<rdf:RDF>
<cc:Work rdf:about="">
<dc:format>image/svg+xml</dc:format>
<dc:type rdf:resource="http://purl.org/dc/dcmitype/StillImage"/>
<dc:title></dc:title>
</cc:Work>
</rdf:RDF>
</metadata>
<g id="layer_Paper" style="fill:#000000;fill-opacity:1;stroke:#000000;stroke-opacity:1;fill-rule:nonzero;stroke-linecap:square;stroke-linejoin:miter;stroke-width:1;stroke-miterlimit:10">
<rect style="fill:none;stroke:none" id="E2F66375" x="0" y="0.000000000046" width="41.6518128033" height="44.334989381"/>
<path style="stroke:none" id="15F66375" d="M25.6859541812,31.7688698114 C25.6599541812,31.4818698114 25.6409541812,31.0208698114 25.6259541812,30.5428698114 C29.9709541812,30.0978698114 33.0189541812,29.0558698114 33.0189541812,27.8418698114 C33.0069541812,27.8398698114 33.0079541812,27.7918698114 33.0079541812,27.7718698114
C29.7599541812,24.8448698114 35.8239541812,4.043869811421 24.5349541812,4.465869811421 C23.8259541812,3.865869811421 22.5849541812,3.332869811421 20.8049541812,3.332869811421 C5.513954181239,4.489869811421 12.2749541812,24.1328698114 8.790954181239,27.8408698114
C8.788954181239,27.8418698114 8.785954181239,27.8418698114 8.783954181239,27.8418698114 C8.783954181239,27.8438698114 8.784954181239,27.8458698114 8.784954181239,27.8478698114 C8.784954181239,27.8488698114 8.783954181239,27.8498698114 8.783954181239,27.8498698114
C8.783954181239,27.8498698114 8.784954181239,27.8498698114 8.785954181239,27.8508698114 C8.799954181239,29.0398698114 11.7449541812,30.0628698114 15.9639541812,30.5188698114 C15.9519541812,30.8088698114 15.9269541812,31.1678698114 15.8719541812,31.7688698114
C14.1199541812,36.4788698114 2.298954181239,35.1568698114 1.752954181239,44.2408698114 L39.7529541812,44.2408698114 C39.2079541812,35.1568698114 27.4379541812,36.4788698114 25.6859541812,31.7688698114 z"/>
</g>
</svg>
