<?xml version="1.0" encoding="UTF-8"?>
<svg version="1.1" xmlns:dc="http://purl.org/dc/elements/1.1/" xmlns:cc="http://creativecommons.org/ns#" xmlns:rdf="http://www.w3.org/1999/02/22-rdf-syntax-ns#" xmlns:svg="http://www.w3.org/2000/svg" xmlns:xlink="http://www.w3.org/1999/xlink" xmlns="http://www.w3.org/2000/svg" width="41.7466246966" height="44.2893848604" viewBox="0, 0, 41.7466246966, 44.2893848604" preserveAspectRatio="none" id="svg2">
<defs id="defs_BB5CA9D5"/>
<metadata id="metadata7">
<rdf:RDF>
<cc:Work rdf:about="">
<dc:format>image/svg+xml</dc:format>
<dc:type rdf:resource="http://purl.org/dc/dcmitype/StillImage"/>
<dc:title></dc:title>
</cc:Work>
</rdf:RDF>
</metadata>
<g id="layer_Paper" style="fill:#000000;fill-opacity:1;stroke:#000000;stroke-opacity:1;fill-rule:nonzero;stroke-linecap:square;stroke-linejoin:miter;stroke-width:1;stroke-miterlimit:10">
<g id="CB3B50A5">
<rect style="fill:none;stroke:none" id="FC82D195" x="0" y="0" width="41.7466246966" height="44.209837682"/>
</g>
<path style="stroke:none" id="EE82D195" d="M25.8169520209,31.8173848604 C25.6709520209,30.2053848604 25.7269520209,29.0803848604 25.7269520209,27.6073848604 C26.4569520209,27.2243848604 27.7649520209,24.7823848604 27.9859520209,22.7193848604 C28.5599520209,22.6723848604 29.4649520209,22.1123848604 29.7299520209,19.9013848604
C29.8729520209,18.7143848604 29.3049520209,18.0463848604 28.9589520209,17.8363848604 C29.8929520209,15.0273848604 31.8329520209,6.337384860437 25.3709520209,5.439384860437 C24.7059520209,4.271384860437 23.0029520209,3.680384860437 20.7899520209,3.680384860437
C11.9359520209,3.843384860437 10.8679520209,10.3663848604 12.8089520209,17.8363848604 C12.4639520209,18.0463848604 11.8959520209,18.7143848604 12.0379520209,19.9013848604 C12.3039520209,22.1123848604 13.2079520209,22.6723848604 13.7819520209,22.7193848604
C14.0019520209,24.7813848604 15.3619520209,27.2243848604 16.0939520209,27.6073848604 C16.0939520209,29.0803848604 16.1489520209,30.2053848604 16.0029520209,31.8173848604 C14.2509520209,36.5273848604 2.429952020942,35.2053848604 1.883952020942,44.2893848604
L39.8839520209,44.2893848604 C39.3389520209,35.2053848604 27.5689520209,36.5273848604 25.8169520209,31.8173848604 z"/>
</g>
</svg>
